<svg xmlns="http://www.w3.org/2000/svg" version="1.1" xmlns:xlink="http://www.w3.org/1999/xlink" xmlns:svgjs="http://svgjs.dev/svgjs" viewBox="0 0 800 800"><defs><linearGradient x1="50%" y1="0%" x2="50%" y2="100%" id="ffflurry-grad" gradientTransform="rotate(270)"><stop stop-color="hsl(238, 82%, 13%)" stop-opacity="1" offset="0%"></stop><stop stop-color="hsl(1.4, 100%, 67%)" stop-opacity="1" offset="45%"></stop><stop stop-color="hsl(167, 52%, 78%)" stop-opacity="1" offset="100%"></stop></linearGradient></defs><rect width="100%" height="100%" fill="hsl(238, 82%, 13%)"></rect><g fill="url(#ffflurry-grad)"><rect width="503" height="3" x="-64.5" y="368.5" rx="1.5" transform="rotate(123, 187, 370)" opacity="0.63"></rect><rect width="169" height="3" x="588.5" y="773.5" rx="1.5" transform="rotate(123, 673, 775)" opacity="0.90"></rect><rect width="235" height="3" x="589.5" y="368.5" rx="1.5" transform="rotate(123, 707, 370)" opacity="0.48"></rect><rect width="419" height="3" x="481.5" y="622.5" rx="1.5" transform="rotate(123, 691, 624)" opacity="0.17"></rect><rect width="603" height="3" x="-147.5" y="575.5" rx="1.5" transform="rotate(123, 154, 577)" opacity="0.96"></rect><rect width="235" height="3" x="499.5" y="624.5" rx="1.5" transform="rotate(123, 617, 626)" opacity="0.15"></rect><rect width="282" height="3" x="-108" y="326.5" rx="1.5" transform="rotate(123, 33, 328)" opacity="0.47"></rect><rect width="82" height="3" x="28" y="400.5" rx="1.5" transform="rotate(123, 69, 402)" opacity="0.60"></rect><rect width="403" height="3" x="322.5" y="631.5" rx="1.5" transform="rotate(123, 524, 633)" opacity="0.85"></rect><rect width="58" height="3" x="211" y="666.5" rx="1.5" transform="rotate(123, 240, 668)" opacity="0.94"></rect><rect width="618" height="3" x="447" y="728.5" rx="1.5" transform="rotate(123, 756, 730)" opacity="0.98"></rect><rect width="268" height="3" x="349" y="741.5" rx="1.5" transform="rotate(123, 483, 743)" opacity="0.81"></rect><rect width="63" height="3" x="75.5" y="678.5" rx="1.5" transform="rotate(123, 107, 680)" opacity="0.53"></rect><rect width="63" height="3" x="240.5" y="594.5" rx="1.5" transform="rotate(123, 272, 596)" opacity="0.21"></rect><rect width="310" height="3" x="-43" y="267.5" rx="1.5" transform="rotate(123, 112, 269)" opacity="0.37"></rect><rect width="178" height="3" x="678" y="409.5" rx="1.5" transform="rotate(123, 767, 411)" opacity="0.58"></rect><rect width="509" height="3" x="-118.5" y="196.5" rx="1.5" transform="rotate(123, 136, 198)" opacity="0.56"></rect><rect width="471" height="3" x="129.5" y="704.5" rx="1.5" transform="rotate(123, 365, 706)" opacity="0.53"></rect><rect width="443" height="3" x="52.5" y="314.5" rx="1.5" transform="rotate(123, 274, 316)" opacity="0.07"></rect><rect width="385" height="3" x="243.5" y="237.5" rx="1.5" transform="rotate(123, 436, 239)" opacity="0.73"></rect><rect width="483" height="3" x="129.5" y="160.5" rx="1.5" transform="rotate(123, 371, 162)" opacity="0.83"></rect><rect width="139" height="3" x="336.5" y="765.5" rx="1.5" transform="rotate(123, 406, 767)" opacity="0.82"></rect><rect width="271" height="3" x="350.5" y="562.5" rx="1.5" transform="rotate(123, 486, 564)" opacity="0.58"></rect><rect width="56" height="3" x="173" y="265.5" rx="1.5" transform="rotate(123, 201, 267)" opacity="0.15"></rect><rect width="232" height="3" x="203" y="234.5" rx="1.5" transform="rotate(123, 319, 236)" opacity="0.75"></rect><rect width="298" height="3" x="532" y="229.5" rx="1.5" transform="rotate(123, 681, 231)" opacity="0.71"></rect><rect width="416" height="3" x="243" y="139.5" rx="1.5" transform="rotate(123, 451, 141)" opacity="0.84"></rect><rect width="279" height="3" x="603.5" y="134.5" rx="1.5" transform="rotate(123, 743, 136)" opacity="1.00"></rect><rect width="310" height="3" x="-106" y="774.5" rx="1.5" transform="rotate(123, 49, 776)" opacity="0.71"></rect><rect width="671" height="3" x="-286.5" y="150.5" rx="1.5" transform="rotate(123, 49, 152)" opacity="0.13"></rect><rect width="506" height="3" x="124" y="333.5" rx="1.5" transform="rotate(123, 377, 335)" opacity="0.10"></rect><rect width="41" height="3" x="537.5" y="762.5" rx="1.5" transform="rotate(123, 558, 764)" opacity="0.16"></rect><rect width="187" height="3" x="560.5" y="716.5" rx="1.5" transform="rotate(123, 654, 718)" opacity="0.89"></rect><rect width="355" height="3" x="268.5" y="466.5" rx="1.5" transform="rotate(123, 446, 468)" opacity="0.09"></rect><rect width="547" height="3" x="488.5" y="228.5" rx="1.5" transform="rotate(123, 762, 230)" opacity="0.71"></rect><rect width="445" height="3" x="-72.5" y="109.5" rx="1.5" transform="rotate(123, 150, 111)" opacity="0.94"></rect><rect width="101" height="3" x="709.5" y="312.5" rx="1.5" transform="rotate(123, 760, 314)" opacity="0.54"></rect><rect width="514" height="3" x="6" y="422.5" rx="1.5" transform="rotate(123, 263, 424)" opacity="0.23"></rect><rect width="240" height="3" x="66" y="684.5" rx="1.5" transform="rotate(123, 186, 686)" opacity="0.20"></rect><rect width="229" height="3" x="494.5" y="545.5" rx="1.5" transform="rotate(123, 609, 547)" opacity="0.22"></rect><rect width="252" height="3" x="396" y="97.5" rx="1.5" transform="rotate(123, 522, 99)" opacity="0.07"></rect><rect width="461" height="3" x="208.5" y="37.5" rx="1.5" transform="rotate(123, 439, 39)" opacity="0.15"></rect><rect width="159" height="3" x="81.5" y="462.5" rx="1.5" transform="rotate(123, 161, 464)" opacity="0.92"></rect><rect width="685" height="3" x="159.5" y="276.5" rx="1.5" transform="rotate(123, 502, 278)" opacity="0.90"></rect><rect width="260" height="3" x="314" y="659.5" rx="1.5" transform="rotate(123, 444, 661)" opacity="0.30"></rect><rect width="703" height="3" x="283.5" y="443.5" rx="1.5" transform="rotate(123, 635, 445)" opacity="0.85"></rect><rect width="279" height="3" x="190.5" y="51.5" rx="1.5" transform="rotate(123, 330, 53)" opacity="0.76"></rect><rect width="437" height="3" x="-55.5" y="763.5" rx="1.5" transform="rotate(123, 163, 765)" opacity="0.88"></rect><rect width="386" height="3" x="96" y="136.5" rx="1.5" transform="rotate(123, 289, 138)" opacity="0.09"></rect><rect width="266" height="3" x="78" y="43.5" rx="1.5" transform="rotate(123, 211, 45)" opacity="0.13"></rect><rect width="240" height="3" x="341" y="405.5" rx="1.5" transform="rotate(123, 461, 407)" opacity="0.16"></rect><rect width="161" height="3" x="453.5" y="366.5" rx="1.5" transform="rotate(123, 534, 368)" opacity="0.30"></rect><rect width="240" height="3" x="-5" y="337.5" rx="1.5" transform="rotate(123, 115, 339)" opacity="0.84"></rect><rect width="282" height="3" x="457" y="37.5" rx="1.5" transform="rotate(123, 598, 39)" opacity="0.55"></rect><rect width="54" height="3" x="530" y="671.5" rx="1.5" transform="rotate(123, 557, 673)" opacity="0.27"></rect><rect width="282" height="3" x="497" y="338.5" rx="1.5" transform="rotate(123, 638, 340)" opacity="0.24"></rect><rect width="407" height="3" x="-166.5" y="704.5" rx="1.5" transform="rotate(123, 37, 706)" opacity="0.57"></rect><rect width="475" height="3" x="-174.5" y="47.5" rx="1.5" transform="rotate(123, 63, 49)" opacity="0.75"></rect><rect width="304" height="3" x="136" y="757.5" rx="1.5" transform="rotate(123, 288, 759)" opacity="0.38"></rect><rect width="602" height="3" x="245" y="475.5" rx="1.5" transform="rotate(123, 546, 477)" opacity="0.90"></rect><rect width="453" height="3" x="-189.5" y="237.5" rx="1.5" transform="rotate(123, 37, 239)" opacity="0.23"></rect><rect width="271" height="3" x="276.5" y="508.5" rx="1.5" transform="rotate(123, 412, 510)" opacity="0.18"></rect><rect width="476" height="3" x="-13" y="172.5" rx="1.5" transform="rotate(123, 225, 174)" opacity="0.78"></rect><rect width="500" height="3" x="365" y="140.5" rx="1.5" transform="rotate(123, 615, 142)" opacity="0.62"></rect><rect width="303" height="3" x="199.5" y="431.5" rx="1.5" transform="rotate(123, 351, 433)" opacity="0.42"></rect><rect width="281" height="3" x="225.5" y="546.5" rx="1.5" transform="rotate(123, 366, 548)" opacity="0.44"></rect><rect width="446" height="3" x="153" y="613.5" rx="1.5" transform="rotate(123, 376, 615)" opacity="0.62"></rect><rect width="684" height="3" x="388" y="490.5" rx="1.5" transform="rotate(123, 730, 492)" opacity="0.40"></rect><rect width="521" height="3" x="35.5" y="516.5" rx="1.5" transform="rotate(123, 296, 518)" opacity="0.86"></rect><rect width="98" height="3" x="546" y="702.5" rx="1.5" transform="rotate(123, 595, 704)" opacity="0.85"></rect><rect width="109" height="3" x="166.5" y="529.5" rx="1.5" transform="rotate(123, 221, 531)" opacity="0.87"></rect><rect width="522" height="3" x="500" y="590.5" rx="1.5" transform="rotate(123, 761, 592)" opacity="0.19"></rect><rect width="437" height="3" x="-165.5" y="584.5" rx="1.5" transform="rotate(123, 53, 586)" opacity="0.93"></rect><rect width="502" height="3" x="476" y="44.5" rx="1.5" transform="rotate(123, 727, 46)" opacity="0.75"></rect><rect width="545" height="3" x="314.5" y="248.5" rx="1.5" transform="rotate(123, 587, 250)" opacity="0.11"></rect><rect width="376" height="3" x="118" y="660.5" rx="1.5" transform="rotate(123, 306, 662)" opacity="0.60"></rect><rect width="557" height="3" x="-227.5" y="479.5" rx="1.5" transform="rotate(123, 51, 481)" opacity="0.73"></rect></g></svg>