<svg xmlns="http://www.w3.org/2000/svg" version="1.1" xmlns:xlink="http://www.w3.org/1999/xlink" xmlns:svgjs="http://svgjs.dev/svgjs" viewBox="0 0 1422 800"><circle r="13" cx="455" cy="252" fill="hsl(161, 75%, 70%)" opacity="0.76"></circle><circle r="12" cx="264" cy="779" fill="hsl(229, 75%, 70%)" opacity="0.17"></circle><circle r="19" cx="287" cy="350" fill="hsl(220, 75%, 70%)" opacity="0.40"></circle><circle r="16.5" cx="528" cy="344" fill="hsl(155, 75%, 70%)" opacity="0.89"></circle><circle r="10" cx="1064" cy="652" fill="hsl(83, 75%, 70%)" opacity="0.96"></circle><circle r="11.5" cx="830" cy="570" fill="hsl(197, 75%, 70%)" opacity="0.43"></circle><circle r="9" cx="1207" cy="730" fill="hsl(21, 75%, 70%)" opacity="0.33"></circle><circle r="9" cx="1389" cy="53" fill="hsl(98, 75%, 70%)" opacity="0.65"></circle><circle r="14" cx="83" cy="293" fill="hsl(284, 75%, 70%)" opacity="0.51"></circle><circle r="14.5" cx="809" cy="359" fill="hsl(198, 75%, 70%)" opacity="0.17"></circle><circle r="9.5" cx="1126" cy="387" fill="hsl(45, 75%, 70%)" opacity="0.47"></circle><circle r="11.5" cx="485" cy="726" fill="hsl(157, 75%, 70%)" opacity="0.73"></circle><circle r="16" cx="752" cy="338" fill="hsl(192, 75%, 70%)" opacity="0.94"></circle><circle r="6.5" cx="1165" cy="220" fill="hsl(28, 75%, 70%)" opacity="0.82"></circle><circle r="18.5" cx="42" cy="162" fill="hsl(281, 75%, 70%)" opacity="0.16"></circle><circle r="14.5" cx="223" cy="529" fill="hsl(239, 75%, 70%)" opacity="0.50"></circle><circle r="4" cx="145" cy="793" fill="hsl(270, 75%, 70%)" opacity="0.20"></circle><circle r="5.5" cx="1302" cy="71" fill="hsl(63, 75%, 70%)" opacity="0.66"></circle><circle r="13" cx="774" cy="217" fill="hsl(196, 75%, 70%)" opacity="0.32"></circle><circle r="12.5" cx="702" cy="135" fill="hsl(169, 75%, 70%)" opacity="0.29"></circle><circle r="12.5" cx="321" cy="402" fill="hsl(202, 75%, 70%)" opacity="0.11"></circle><circle r="13.5" cx="249" cy="236" fill="hsl(229, 75%, 70%)" opacity="0.22"></circle><circle r="12" cx="291" cy="620" fill="hsl(211, 75%, 70%)" opacity="0.21"></circle><circle r="13" cx="227" cy="471" fill="hsl(239, 75%, 70%)" opacity="0.10"></circle><circle r="13" cx="249" cy="190" fill="hsl(229, 75%, 70%)" opacity="0.82"></circle><circle r="15.5" cx="100" cy="233" fill="hsl(280, 75%, 70%)" opacity="0.98"></circle><circle r="7" cx="1286" cy="146" fill="hsl(34, 75%, 70%)" opacity="0.38"></circle><circle r="16.5" cx="845" cy="131" fill="hsl(197, 75%, 70%)" opacity="0.64"></circle><circle r="13.5" cx="1386" cy="258" fill="hsl(88, 75%, 70%)" opacity="0.59"></circle><circle r="8" cx="571" cy="416" fill="hsl(157, 75%, 70%)" opacity="0.33"></circle><circle r="8" cx="939" cy="618" fill="hsl(157, 75%, 70%)" opacity="0.85"></circle><circle r="5.5" cx="1269" cy="249" fill="hsl(31, 75%, 70%)" opacity="0.57"></circle><circle r="14.5" cx="222" cy="737" fill="hsl(247, 75%, 70%)" opacity="0.94"></circle><circle r="19.5" cx="184" cy="154" fill="hsl(247, 75%, 70%)" opacity="0.82"></circle><circle r="12" cx="787" cy="541" fill="hsl(198, 75%, 70%)" opacity="0.44"></circle><circle r="20" cx="925" cy="36" fill="hsl(225, 75%, 70%)" opacity="0.84"></circle><circle r="10.5" cx="391" cy="173" fill="hsl(179, 75%, 70%)" opacity="0.55"></circle><circle r="14.5" cx="57" cy="445" fill="hsl(287, 75%, 70%)" opacity="0.90"></circle><circle r="17.5" cx="778" cy="431" fill="hsl(198, 75%, 70%)" opacity="0.19"></circle><circle r="17.5" cx="118" cy="532" fill="hsl(276, 75%, 70%)" opacity="0.57"></circle><circle r="15.5" cx="986" cy="366" fill="hsl(129, 75%, 70%)" opacity="0.69"></circle><circle r="13.5" cx="156" cy="65" fill="hsl(208, 75%, 70%)" opacity="0.87"></circle><circle r="8.5" cx="558" cy="754" fill="hsl(157, 75%, 70%)" opacity="0.20"></circle><circle r="4.5" cx="1228" cy="256" fill="hsl(22, 75%, 70%)" opacity="0.63"></circle><circle r="18" cx="846" cy="59" fill="hsl(206, 75%, 70%)" opacity="0.17"></circle><circle r="14.5" cx="447" cy="670" fill="hsl(161, 75%, 70%)" opacity="0.24"></circle><circle r="14.5" cx="563" cy="196" fill="hsl(157, 75%, 70%)" opacity="0.30"></circle><circle r="11" cx="523" cy="699" fill="hsl(155, 75%, 70%)" opacity="0.17"></circle><circle r="16.5" cx="110" cy="473" fill="hsl(280, 75%, 70%)" opacity="0.48"></circle><circle r="6.5" cx="1180" cy="368" fill="hsl(23, 75%, 70%)" opacity="0.68"></circle><circle r="13.5" cx="96" cy="422" fill="hsl(280, 75%, 70%)" opacity="0.35"></circle><circle r="6.5" cx="1148" cy="271" fill="hsl(35, 75%, 70%)" opacity="0.40"></circle><circle r="8.5" cx="1011" cy="468" fill="hsl(114, 75%, 70%)" opacity="0.93"></circle><circle r="15" cx="24" cy="99" fill="hsl(246, 75%, 70%)" opacity="0.47"></circle><circle r="15.5" cx="645" cy="272" fill="hsl(172, 75%, 70%)" opacity="0.82"></circle><circle r="13.5" cx="498" cy="639" fill="hsl(155, 75%, 70%)" opacity="0.44"></circle><circle r="14.5" cx="169" cy="623" fill="hsl(263, 75%, 70%)" opacity="0.32"></circle><circle r="13" cx="819" cy="249" fill="hsl(198, 75%, 70%)" opacity="0.23"></circle><circle r="15.5" cx="398" cy="543" fill="hsl(178, 75%, 70%)" opacity="0.50"></circle><circle r="12" cx="671" cy="79" fill="hsl(143, 75%, 70%)" opacity="0.74"></circle><circle r="12.5" cx="262" cy="506" fill="hsl(229, 75%, 70%)" opacity="0.90"></circle><circle r="4.5" cx="1239" cy="286" fill="hsl(22, 75%, 70%)" opacity="0.10"></circle><circle r="17.5" cx="483" cy="179" fill="hsl(157, 75%, 70%)" opacity="0.31"></circle><circle r="10" cx="960" cy="698" fill="hsl(143, 75%, 70%)" opacity="0.35"></circle><circle r="13" cx="333" cy="297" fill="hsl(202, 75%, 70%)" opacity="0.52"></circle><circle r="11" cx="717" cy="65" fill="hsl(153, 75%, 70%)" opacity="0.16"></circle><circle r="16.5" cx="178" cy="488" fill="hsl(263, 75%, 70%)" opacity="0.46"></circle><circle r="14" cx="1254" cy="39" fill="hsl(94, 75%, 70%)" opacity="0.35"></circle><circle r="10.5" cx="1383" cy="521" fill="hsl(88, 75%, 70%)" opacity="0.31"></circle><circle r="13.5" cx="776" cy="113" fill="hsl(181, 75%, 70%)" opacity="0.63"></circle><circle r="13" cx="1385" cy="675" fill="hsl(88, 75%, 70%)" opacity="0.70"></circle><circle r="19" cx="846" cy="414" fill="hsl(193, 75%, 70%)" opacity="0.83"></circle><circle r="13" cx="1374" cy="173" fill="hsl(70, 75%, 70%)" opacity="0.25"></circle><circle r="14" cx="440" cy="757" fill="hsl(165, 75%, 70%)" opacity="0.40"></circle><circle r="13.5" cx="383" cy="310" fill="hsl(178, 75%, 70%)" opacity="0.44"></circle><circle r="17.5" cx="704" cy="396" fill="hsl(182, 75%, 70%)" opacity="0.80"></circle><circle r="5" cx="1303" cy="784" fill="hsl(39, 75%, 70%)" opacity="0.75"></circle><circle r="17.5" cx="221" cy="368" fill="hsl(247, 75%, 70%)" opacity="0.46"></circle><circle r="8.5" cx="1399" cy="111" fill="hsl(84, 75%, 70%)" opacity="0.21"></circle><circle r="9.5" cx="1318" cy="211" fill="hsl(49, 75%, 70%)" opacity="0.96"></circle><circle r="10" cx="820" cy="196" fill="hsl(198, 75%, 70%)" opacity="0.34"></circle><circle r="7.5" cx="666" cy="609" fill="hsl(172, 75%, 70%)" opacity="0.28"></circle><circle r="11.5" cx="197" cy="28" fill="hsl(193, 75%, 70%)" opacity="0.65"></circle><circle r="14" cx="239" cy="681" fill="hsl(239, 75%, 70%)" opacity="0.75"></circle><circle r="9.5" cx="307" cy="709" fill="hsl(211, 75%, 70%)" opacity="0.21"></circle><circle r="8.5" cx="310" cy="484" fill="hsl(211, 75%, 70%)" opacity="0.25"></circle><circle r="7" cx="575" cy="88" fill="hsl(126, 75%, 70%)" opacity="0.95"></circle><circle r="18" cx="478" cy="570" fill="hsl(157, 75%, 70%)" opacity="0.93"></circle><circle r="12" cx="711" cy="630" fill="hsl(182, 75%, 70%)" opacity="0.37"></circle><circle r="11.5" cx="742" cy="575" fill="hsl(192, 75%, 70%)" opacity="0.56"></circle><circle r="8" cx="1172" cy="667" fill="hsl(28, 75%, 70%)" opacity="0.34"></circle><circle r="16.5" cx="44" cy="573" fill="hsl(288, 75%, 70%)" opacity="0.58"></circle><circle r="5.5" cx="1206" cy="206" fill="hsl(21, 75%, 70%)" opacity="0.93"></circle><circle r="13.5" cx="336" cy="774" fill="hsl(193, 75%, 70%)" opacity="0.16"></circle><circle r="8.5" cx="277" cy="697" fill="hsl(220, 75%, 70%)" opacity="0.81"></circle><circle r="11.5" cx="1041" cy="291" fill="hsl(98, 75%, 70%)" opacity="0.49"></circle><circle r="10.5" cx="1317" cy="579" fill="hsl(49, 75%, 70%)" opacity="0.50"></circle><circle r="10.5" cx="411" cy="471" fill="hsl(171, 75%, 70%)" opacity="0.83"></circle><circle r="10" cx="1062" cy="491" fill="hsl(83, 75%, 70%)" opacity="0.32"></circle><circle r="12.5" cx="949" cy="199" fill="hsl(157, 75%, 70%)" opacity="0.89"></circle><circle r="7.5" cx="104" cy="113" fill="hsl(255, 75%, 70%)" opacity="0.80"></circle><circle r="9.5" cx="160" cy="769" fill="hsl(263, 75%, 70%)" opacity="0.84"></circle><circle r="8.5" cx="1309" cy="708" fill="hsl(39, 75%, 70%)" opacity="0.79"></circle><circle r="18" cx="232" cy="309" fill="hsl(239, 75%, 70%)" opacity="0.13"></circle><circle r="10.5" cx="592" cy="287" fill="hsl(160, 75%, 70%)" opacity="0.46"></circle><circle r="8.5" cx="609" cy="405" fill="hsl(163, 75%, 70%)" opacity="0.97"></circle><circle r="8" cx="64" cy="28" fill="hsl(197, 75%, 70%)" opacity="0.90"></circle><circle r="12" cx="877" cy="569" fill="hsl(188, 75%, 70%)" opacity="0.99"></circle><circle r="14" cx="128" cy="610" fill="hsl(276, 75%, 70%)" opacity="0.59"></circle><circle r="15.5" cx="458" cy="323" fill="hsl(161, 75%, 70%)" opacity="0.41"></circle><circle r="12.5" cx="620" cy="361" fill="hsl(163, 75%, 70%)" opacity="0.95"></circle><circle r="10.5" cx="1393" cy="328" fill="hsl(88, 75%, 70%)" opacity="0.94"></circle><circle r="9.5" cx="680" cy="570" fill="hsl(177, 75%, 70%)" opacity="0.44"></circle><circle r="12" cx="619" cy="34" fill="hsl(114, 75%, 70%)" opacity="0.40"></circle><circle r="16.5" cx="915" cy="432" fill="hsl(169, 75%, 70%)" opacity="0.93"></circle><circle r="13" cx="394" cy="693" fill="hsl(178, 75%, 70%)" opacity="0.76"></circle><circle r="11" cx="1000" cy="550" fill="hsl(129, 75%, 70%)" opacity="0.11"></circle><circle r="16.5" cx="251" cy="39" fill="hsl(187, 75%, 70%)" opacity="0.25"></circle><circle r="15" cx="19" cy="412" fill="hsl(289, 75%, 70%)" opacity="0.65"></circle><circle r="9.5" cx="579" cy="724" fill="hsl(160, 75%, 70%)" opacity="0.30"></circle><circle r="13.5" cx="83" cy="751" fill="hsl(284, 75%, 70%)" opacity="0.51"></circle><circle r="10" cx="936" cy="659" fill="hsl(157, 75%, 70%)" opacity="0.90"></circle><circle r="12" cx="329" cy="103" fill="hsl(195, 75%, 70%)" opacity="0.15"></circle><circle r="12" cx="344" cy="557" fill="hsl(193, 75%, 70%)" opacity="0.86"></circle><circle r="10" cx="375" cy="595" fill="hsl(185, 75%, 70%)" opacity="0.99"></circle><circle r="8" cx="1260" cy="752" fill="hsl(25, 75%, 70%)" opacity="0.35"></circle><circle r="11" cx="408" cy="268" fill="hsl(171, 75%, 70%)" opacity="0.85"></circle><circle r="14" cx="137" cy="127" fill="hsl(248, 75%, 70%)" opacity="0.17"></circle><circle r="10" cx="400" cy="131" fill="hsl(168, 75%, 70%)" opacity="0.10"></circle><circle r="8.5" cx="676" cy="20" fill="hsl(126, 75%, 70%)" opacity="0.21"></circle><circle r="13" cx="58" cy="330" fill="hsl(287, 75%, 70%)" opacity="0.15"></circle><circle r="22.5" cx="153" cy="216" fill="hsl(270, 75%, 70%)" opacity="0.64"></circle><circle r="8" cx="975" cy="655" fill="hsl(143, 75%, 70%)" opacity="0.25"></circle><circle r="14.5" cx="1184" cy="58" fill="hsl(96, 75%, 70%)" opacity="0.52"></circle><circle r="11" cx="328" cy="450" fill="hsl(202, 75%, 70%)" opacity="0.27"></circle><circle r="7" cx="1136" cy="502" fill="hsl(35, 75%, 70%)" opacity="0.14"></circle><circle r="16.5" cx="222" cy="617" fill="hsl(239, 75%, 70%)" opacity="0.50"></circle><circle r="9" cx="582" cy="519" fill="hsl(160, 75%, 70%)" opacity="0.24"></circle><circle r="9" cx="440" cy="121" fill="hsl(161, 75%, 70%)" opacity="0.23"></circle><circle r="8.5" cx="1045" cy="605" fill="hsl(83, 75%, 70%)" opacity="0.24"></circle><circle r="16" cx="203" cy="427" fill="hsl(247, 75%, 70%)" opacity="0.52"></circle><circle r="17.5" cx="30" cy="773" fill="hsl(288, 75%, 70%)" opacity="0.67"></circle><circle r="9" cx="1336" cy="330" fill="hsl(61, 75%, 70%)" opacity="0.20"></circle><circle r="8.5" cx="933" cy="583" fill="hsl(157, 75%, 70%)" opacity="0.61"></circle><circle r="11.5" cx="202" cy="87" fill="hsl(216, 75%, 70%)" opacity="0.33"></circle><circle r="11" cx="271" cy="455" fill="hsl(220, 75%, 70%)" opacity="0.34"></circle><circle r="16.5" cx="326" cy="166" fill="hsl(203, 75%, 70%)" opacity="0.21"></circle><circle r="8" cx="503" cy="20" fill="hsl(111, 75%, 70%)" opacity="0.41"></circle><circle r="15.5" cx="1043" cy="139" fill="hsl(121, 75%, 70%)" opacity="0.87"></circle><circle r="10" cx="1305" cy="387" fill="hsl(39, 75%, 70%)" opacity="0.20"></circle><circle r="15" cx="39" cy="717" fill="hsl(288, 75%, 70%)" opacity="0.84"></circle><circle r="11.5" cx="390" cy="773" fill="hsl(178, 75%, 70%)" opacity="0.32"></circle><circle r="12" cx="785" cy="165" fill="hsl(194, 75%, 70%)" opacity="0.89"></circle><circle r="7.5" cx="1186" cy="609" fill="hsl(23, 75%, 70%)" opacity="0.53"></circle><circle r="10.5" cx="493" cy="504" fill="hsl(155, 75%, 70%)" opacity="0.25"></circle><circle r="16.5" cx="68" cy="381" fill="hsl(284, 75%, 70%)" opacity="0.32"></circle><circle r="9.5" cx="1152" cy="448" fill="hsl(35, 75%, 70%)" opacity="0.59"></circle><circle r="15" cx="22" cy="479" fill="hsl(289, 75%, 70%)" opacity="0.86"></circle><circle r="15.5" cx="861" cy="733" fill="hsl(193, 75%, 70%)" opacity="0.64"></circle><circle r="6" cx="1130" cy="338" fill="hsl(45, 75%, 70%)" opacity="0.88"></circle><circle r="10" cx="607" cy="125" fill="hsl(143, 75%, 70%)" opacity="0.52"></circle><circle r="12" cx="773" cy="61" fill="hsl(172, 75%, 70%)" opacity="0.64"></circle><circle r="11" cx="992" cy="774" fill="hsl(129, 75%, 70%)" opacity="0.88"></circle><circle r="13.5" cx="545" cy="130" fill="hsl(140, 75%, 70%)" opacity="0.44"></circle><circle r="8" cx="1050" cy="545" fill="hsl(83, 75%, 70%)" opacity="0.96"></circle><circle r="8" cx="1076" cy="257" fill="hsl(69, 75%, 70%)" opacity="0.56"></circle><circle r="17" cx="435" cy="388" fill="hsl(165, 75%, 70%)" opacity="0.96"></circle><circle r="7" cx="1353" cy="18" fill="hsl(112, 75%, 70%)" opacity="0.16"></circle><circle r="12.5" cx="868" cy="254" fill="hsl(188, 75%, 70%)" opacity="0.21"></circle><circle r="19.5" cx="871" cy="497" fill="hsl(188, 75%, 70%)" opacity="0.83"></circle><circle r="13" cx="199" cy="779" fill="hsl(256, 75%, 70%)" opacity="0.63"></circle><circle r="7" cx="1117" cy="240" fill="hsl(45, 75%, 70%)" opacity="0.78"></circle><circle r="11.5" cx="349" cy="711" fill="hsl(193, 75%, 70%)" opacity="0.12"></circle><circle r="9" cx="320" cy="516" fill="hsl(202, 75%, 70%)" opacity="0.24"></circle><circle r="22" cx="788" cy="755" fill="hsl(198, 75%, 70%)" opacity="0.72"></circle><circle r="10.5" cx="1100" cy="701" fill="hsl(56, 75%, 70%)" opacity="0.33"></circle><circle r="7" cx="1179" cy="542" fill="hsl(23, 75%, 70%)" opacity="0.20"></circle><circle r="11.5" cx="50" cy="64" fill="hsl(214, 75%, 70%)" opacity="0.97"></circle><circle r="10.5" cx="317" cy="59" fill="hsl(181, 75%, 70%)" opacity="0.48"></circle><circle r="6.5" cx="132" cy="776" fill="hsl(276, 75%, 70%)" opacity="0.80"></circle><circle r="10.5" cx="1064" cy="205" fill="hsl(83, 75%, 70%)" opacity="0.39"></circle><circle r="6" cx="1250" cy="209" fill="hsl(25, 75%, 70%)" opacity="0.64"></circle><circle r="10.5" cx="605" cy="482" fill="hsl(163, 75%, 70%)" opacity="0.44"></circle><circle r="9" cx="1231" cy="571" fill="hsl(22, 75%, 70%)" opacity="0.82"></circle><circle r="8.5" cx="811" cy="17" fill="hsl(192, 75%, 70%)" opacity="0.51"></circle><circle r="16" cx="717" cy="254" fill="hsl(187, 75%, 70%)" opacity="0.23"></circle><circle r="9.5" cx="1375" cy="443" fill="hsl(74, 75%, 70%)" opacity="0.32"></circle><circle r="11.5" cx="925" cy="542" fill="hsl(169, 75%, 70%)" opacity="0.65"></circle><circle r="6" cx="1192" cy="271" fill="hsl(23, 75%, 70%)" opacity="0.40"></circle><circle r="6" cx="1127" cy="548" fill="hsl(45, 75%, 70%)" opacity="0.21"></circle><circle r="8.5" cx="1286" cy="524" fill="hsl(31, 75%, 70%)" opacity="0.32"></circle><circle r="11.5" cx="871" cy="319" fill="hsl(188, 75%, 70%)" opacity="0.22"></circle><circle r="10.5" cx="912" cy="287" fill="hsl(169, 75%, 70%)" opacity="0.48"></circle><circle r="13.5" cx="403" cy="65" fill="hsl(152, 75%, 70%)" opacity="0.58"></circle><circle r="7" cx="559" cy="18" fill="hsl(104, 75%, 70%)" opacity="0.50"></circle><circle r="9" cx="1114" cy="166" fill="hsl(54, 75%, 70%)" opacity="0.46"></circle><circle r="9.5" cx="78" cy="123" fill="hsl(257, 75%, 70%)" opacity="0.66"></circle><circle r="15" cx="770" cy="276" fill="hsl(196, 75%, 70%)" opacity="0.64"></circle><circle r="6.5" cx="1292" cy="105" fill="hsl(53, 75%, 70%)" opacity="0.89"></circle><circle r="13.5" cx="418" cy="617" fill="hsl(171, 75%, 70%)" opacity="0.43"></circle><circle r="11" cx="104" cy="64" fill="hsl(213, 75%, 70%)" opacity="0.73"></circle><circle r="9.5" cx="231" cy="108" fill="hsl(221, 75%, 70%)" opacity="0.58"></circle><circle r="9" cx="1314" cy="271" fill="hsl(49, 75%, 70%)" opacity="0.83"></circle><circle r="9.5" cx="594" cy="687" fill="hsl(160, 75%, 70%)" opacity="0.97"></circle><circle r="6.5" cx="1114" cy="301" fill="hsl(45, 75%, 70%)" opacity="0.73"></circle><circle r="5" cx="1012" cy="622" fill="hsl(114, 75%, 70%)" opacity="0.95"></circle><circle r="10" cx="50" cy="272" fill="hsl(287, 75%, 70%)" opacity="0.21"></circle><circle r="10" cx="483" cy="451" fill="hsl(157, 75%, 70%)" opacity="0.52"></circle><circle r="8" cx="464" cy="92" fill="hsl(150, 75%, 70%)" opacity="0.88"></circle><circle r="9" cx="546" cy="656" fill="hsl(155, 75%, 70%)" opacity="0.25"></circle><circle r="9" cx="113" cy="766" fill="hsl(276, 75%, 70%)" opacity="0.48"></circle><circle r="16.5" cx="682" cy="326" fill="hsl(177, 75%, 70%)" opacity="0.51"></circle><circle r="9.5" cx="1356" cy="736" fill="hsl(74, 75%, 70%)" opacity="0.95"></circle><circle r="15.5" cx="254" cy="572" fill="hsl(229, 75%, 70%)" opacity="0.43"></circle><circle r="7" cx="637" cy="598" fill="hsl(167, 75%, 70%)" opacity="0.79"></circle><circle r="13" cx="722" cy="459" fill="hsl(187, 75%, 70%)" opacity="0.71"></circle><circle r="11.5" cx="300" cy="561" fill="hsl(211, 75%, 70%)" opacity="0.90"></circle><circle r="8" cx="316" cy="17" fill="hsl(163, 75%, 70%)" opacity="0.88"></circle><circle r="15" cx="685" cy="198" fill="hsl(177, 75%, 70%)" opacity="0.85"></circle><circle r="10.5" cx="501" cy="100" fill="hsl(140, 75%, 70%)" opacity="0.87"></circle><circle r="13.5" cx="1385" cy="593" fill="hsl(88, 75%, 70%)" opacity="0.29"></circle><circle r="4" cx="81" cy="8" fill="hsl(180, 75%, 70%)" opacity="0.86"></circle><circle r="14.5" cx="299" cy="257" fill="hsl(211, 75%, 70%)" opacity="0.60"></circle><circle r="12.5" cx="550" cy="459" fill="hsl(155, 75%, 70%)" opacity="0.49"></circle><circle r="14.5" cx="34" cy="672" fill="hsl(288, 75%, 70%)" opacity="0.69"></circle><circle r="15" cx="901" cy="363" fill="hsl(179, 75%, 70%)" opacity="0.93"></circle><circle r="12" cx="356" cy="651" fill="hsl(185, 75%, 70%)" opacity="0.89"></circle><circle r="18" cx="50" cy="521" fill="hsl(287, 75%, 70%)" opacity="0.96"></circle><circle r="9.5" cx="903" cy="674" fill="hsl(179, 75%, 70%)" opacity="0.55"></circle><circle r="10.5" cx="795" cy="602" fill="hsl(198, 75%, 70%)" opacity="0.74"></circle><circle r="9" cx="1061" cy="381" fill="hsl(83, 75%, 70%)" opacity="0.67"></circle><circle r="17.5" cx="116" cy="332" fill="hsl(276, 75%, 70%)" opacity="0.33"></circle><circle r="11" cx="446" cy="498" fill="hsl(161, 75%, 70%)" opacity="0.66"></circle><circle r="9.5" cx="559" cy="568" fill="hsl(157, 75%, 70%)" opacity="0.99"></circle><circle r="9.5" cx="108" cy="24" fill="hsl(197, 75%, 70%)" opacity="0.32"></circle><circle r="7.5" cx="989" cy="592" fill="hsl(129, 75%, 70%)" opacity="0.22"></circle><circle r="8.5" cx="13" cy="292" fill="hsl(289, 75%, 70%)" opacity="0.79"></circle><circle r="7" cx="572" cy="635" fill="hsl(157, 75%, 70%)" opacity="0.72"></circle><circle r="10" cx="889" cy="781" fill="hsl(188, 75%, 70%)" opacity="0.43"></circle><circle r="10.5" cx="292" cy="662" fill="hsl(211, 75%, 70%)" opacity="0.52"></circle><circle r="11" cx="278" cy="112" fill="hsl(215, 75%, 70%)" opacity="0.49"></circle><circle r="18.5" cx="975" cy="108" fill="hsl(184, 75%, 70%)" opacity="0.41"></circle><circle r="16" cx="1099" cy="74" fill="hsl(127, 75%, 70%)" opacity="0.12"></circle><circle r="15" cx="22" cy="622" fill="hsl(288, 75%, 70%)" opacity="0.96"></circle><circle r="9.5" cx="1144" cy="762" fill="hsl(35, 75%, 70%)" opacity="0.36"></circle><circle r="10" cx="376" cy="27" fill="hsl(159, 75%, 70%)" opacity="0.71"></circle><circle r="10.5" cx="650" cy="133" fill="hsl(158, 75%, 70%)" opacity="0.47"></circle><circle r="11" cx="828" cy="640" fill="hsl(197, 75%, 70%)" opacity="0.90"></circle><circle r="12" cx="976" cy="432" fill="hsl(143, 75%, 70%)" opacity="0.81"></circle><circle r="10" cx="983" cy="505" fill="hsl(129, 75%, 70%)" opacity="0.56"></circle><circle r="16.5" cx="82" cy="624" fill="hsl(284, 75%, 70%)" opacity="0.45"></circle><circle r="8" cx="1033" cy="429" fill="hsl(98, 75%, 70%)" opacity="0.49"></circle><circle r="9.5" cx="150" cy="19" fill="hsl(180, 75%, 70%)" opacity="0.44"></circle><circle r="15.5" cx="625" cy="202" fill="hsl(167, 75%, 70%)" opacity="0.53"></circle><circle r="7.5" cx="1071" cy="335" fill="hsl(69, 75%, 70%)" opacity="0.65"></circle><circle r="7" cx="1226" cy="329" fill="hsl(22, 75%, 70%)" opacity="0.10"></circle><circle r="14.5" cx="799" cy="490" fill="hsl(198, 75%, 70%)" opacity="0.87"></circle><circle r="12" cx="757" cy="622" fill="hsl(196, 75%, 70%)" opacity="0.10"></circle><circle r="6.5" cx="1127" cy="593" fill="hsl(45, 75%, 70%)" opacity="0.85"></circle><circle r="12.5" cx="454" cy="31" fill="hsl(130, 75%, 70%)" opacity="0.32"></circle><circle r="16" cx="162" cy="726" fill="hsl(263, 75%, 70%)" opacity="0.98"></circle><circle r="13" cx="382" cy="220" fill="hsl(178, 75%, 70%)" opacity="0.97"></circle><circle r="7.5" cx="1348" cy="486" fill="hsl(61, 75%, 70%)" opacity="0.88"></circle><circle r="11" cx="900" cy="210" fill="hsl(179, 75%, 70%)" opacity="0.80"></circle><circle r="11" cx="377" cy="447" fill="hsl(185, 75%, 70%)" opacity="0.68"></circle><circle r="18" cx="186" cy="271" fill="hsl(256, 75%, 70%)" opacity="0.92"></circle><circle r="11.5" cx="863" cy="670" fill="hsl(193, 75%, 70%)" opacity="0.19"></circle><circle r="10.5" cx="334" cy="609" fill="hsl(193, 75%, 70%)" opacity="0.18"></circle><circle r="12" cx="1274" cy="644" fill="hsl(31, 75%, 70%)" opacity="0.32"></circle><circle r="8.5" cx="1341" cy="105" fill="hsl(66, 75%, 70%)" opacity="0.22"></circle><circle r="15.5" cx="654" cy="473" fill="hsl(172, 75%, 70%)" opacity="0.38"></circle><circle r="17" cx="188" cy="675" fill="hsl(256, 75%, 70%)" opacity="0.25"></circle><circle r="8.5" cx="1086" cy="568" fill="hsl(69, 75%, 70%)" opacity="0.98"></circle><circle r="10.5" cx="803" cy="670" fill="hsl(198, 75%, 70%)" opacity="0.13"></circle><circle r="11" cx="1392" cy="771" fill="hsl(88, 75%, 70%)" opacity="0.14"></circle><circle r="17" cx="749" cy="687" fill="hsl(192, 75%, 70%)" opacity="0.54"></circle><circle r="16.5" cx="365" cy="373" fill="hsl(185, 75%, 70%)" opacity="0.28"></circle><circle r="11" cx="534" cy="522" fill="hsl(155, 75%, 70%)" opacity="0.40"></circle><circle r="11" cx="621" cy="562" fill="hsl(163, 75%, 70%)" opacity="0.37"></circle><circle r="13.5" cx="160" cy="440" fill="hsl(263, 75%, 70%)" opacity="0.39"></circle><circle r="10.5" cx="247" cy="145" fill="hsl(227, 75%, 70%)" opacity="0.38"></circle><circle r="14.5" cx="261" cy="411" fill="hsl(229, 75%, 70%)" opacity="0.90"></circle><circle r="9" cx="711" cy="539" fill="hsl(182, 75%, 70%)" opacity="0.49"></circle><circle r="10" cx="550" cy="279" fill="hsl(155, 75%, 70%)" opacity="0.80"></circle><circle r="9" cx="709" cy="504" fill="hsl(182, 75%, 70%)" opacity="0.89"></circle><circle r="19.5" cx="173" cy="555" fill="hsl(263, 75%, 70%)" opacity="0.47"></circle><circle r="7" cx="559" cy="604" fill="hsl(157, 75%, 70%)" opacity="0.17"></circle><circle r="12.5" cx="22" cy="26" fill="hsl(198, 75%, 70%)" opacity="0.52"></circle><circle r="8" cx="603" cy="635" fill="hsl(163, 75%, 70%)" opacity="0.94"></circle><circle r="11" cx="1168" cy="141" fill="hsl(45, 75%, 70%)" opacity="0.47"></circle><circle r="9" cx="1222" cy="490" fill="hsl(22, 75%, 70%)" opacity="0.75"></circle><circle r="10" cx="304" cy="749" fill="hsl(211, 75%, 70%)" opacity="0.69"></circle><circle r="10" cx="861" cy="185" fill="hsl(193, 75%, 70%)" opacity="0.67"></circle><circle r="17.5" cx="35" cy="217" fill="hsl(288, 75%, 70%)" opacity="0.58"></circle><circle r="18" cx="969" cy="292" fill="hsl(143, 75%, 70%)" opacity="0.20"></circle><circle r="8.5" cx="1014" cy="656" fill="hsl(114, 75%, 70%)" opacity="0.89"></circle><circle r="10.5" cx="1389" cy="388" fill="hsl(88, 75%, 70%)" opacity="0.87"></circle><circle r="14" cx="824" cy="301" fill="hsl(197, 75%, 70%)" opacity="0.18"></circle><circle r="20.5" cx="701" cy="742" fill="hsl(182, 75%, 70%)" opacity="0.91"></circle><circle r="21" cx="115" cy="683" fill="hsl(276, 75%, 70%)" opacity="0.73"></circle><circle r="9" cx="1224" cy="401" fill="hsl(22, 75%, 70%)" opacity="0.25"></circle><circle r="13.5" cx="510" cy="408" fill="hsl(155, 75%, 70%)" opacity="0.40"></circle><circle r="13" cx="513" cy="246" fill="hsl(155, 75%, 70%)" opacity="0.51"></circle><circle r="10" cx="529" cy="58" fill="hsl(122, 75%, 70%)" opacity="0.83"></circle><circle r="12.5" cx="939" cy="743" fill="hsl(157, 75%, 70%)" opacity="0.97"></circle><circle r="13.5" cx="1023" cy="713" fill="hsl(98, 75%, 70%)" opacity="0.90"></circle><circle r="7.5" cx="1232" cy="143" fill="hsl(31, 75%, 70%)" opacity="0.77"></circle><circle r="14" cx="20" cy="344" fill="hsl(289, 75%, 70%)" opacity="0.40"></circle><circle r="9.5" cx="262" cy="726" fill="hsl(229, 75%, 70%)" opacity="0.52"></circle><circle r="6.5" cx="583" cy="56" fill="hsl(119, 75%, 70%)" opacity="0.23"></circle><circle r="5.5" cx="981" cy="625" fill="hsl(129, 75%, 70%)" opacity="0.69"></circle><circle r="7.5" cx="1118" cy="638" fill="hsl(45, 75%, 70%)" opacity="0.26"></circle><circle r="16" cx="634" cy="754" fill="hsl(167, 75%, 70%)" opacity="0.86"></circle><circle r="8" cx="1276" cy="322" fill="hsl(31, 75%, 70%)" opacity="0.92"></circle><circle r="9" cx="19" cy="261" fill="hsl(289, 75%, 70%)" opacity="0.74"></circle><circle r="8.5" cx="635" cy="663" fill="hsl(167, 75%, 70%)" opacity="0.95"></circle><circle r="10.5" cx="672" cy="654" fill="hsl(177, 75%, 70%)" opacity="0.22"></circle><circle r="9.5" cx="1082" cy="434" fill="hsl(69, 75%, 70%)" opacity="0.48"></circle><circle r="8.5" cx="1118" cy="18" fill="hsl(170, 75%, 70%)" opacity="0.33"></circle><circle r="11" cx="873" cy="617" fill="hsl(188, 75%, 70%)" opacity="0.12"></circle><circle r="12.5" cx="1003" cy="215" fill="hsl(114, 75%, 70%)" opacity="0.74"></circle><circle r="16.5" cx="168" cy="356" fill="hsl(263, 75%, 70%)" opacity="0.47"></circle><circle r="15" cx="136" cy="403" fill="hsl(270, 75%, 70%)" opacity="0.22"></circle><circle r="5" cx="1323" cy="48" fill="hsl(79, 75%, 70%)" opacity="0.85"></circle><circle r="10.5" cx="1070" cy="769" fill="hsl(69, 75%, 70%)" opacity="0.95"></circle><circle r="10" cx="742" cy="22" fill="hsl(156, 75%, 70%)" opacity="0.46"></circle><circle r="17.5" cx="911" cy="124" fill="hsl(194, 75%, 70%)" opacity="0.86"></circle><circle r="9" cx="525" cy="781" fill="hsl(155, 75%, 70%)" opacity="0.90"></circle><circle r="12" cx="738" cy="175" fill="hsl(186, 75%, 70%)" opacity="0.58"></circle><circle r="10" cx="1278" cy="450" fill="hsl(31, 75%, 70%)" opacity="0.44"></circle><circle r="11" cx="939" cy="489" fill="hsl(157, 75%, 70%)" opacity="0.76"></circle><circle r="7" cx="1171" cy="316" fill="hsl(28, 75%, 70%)" opacity="0.55"></circle><circle r="20.5" cx="1022" cy="45" fill="hsl(184, 75%, 70%)" opacity="0.91"></circle></svg>