<svg xmlns="http://www.w3.org/2000/svg" version="1.1" xmlns:xlink="http://www.w3.org/1999/xlink" xmlns:svgjs="http://svgjs.dev/svgjs" viewBox="0 0 800 800"><defs><linearGradient x1="50%" y1="0%" x2="50%" y2="100%" id="ffflurry-grad" gradientTransform="rotate(270)"><stop stop-color="hsl(238, 82%, 13%)" stop-opacity="1" offset="0%"></stop><stop stop-color="hsl(1.4, 100%, 67%)" stop-opacity="1" offset="45%"></stop><stop stop-color="hsl(167, 52%, 78%)" stop-opacity="1" offset="100%"></stop></linearGradient></defs><rect width="100%" height="100%" fill="hsl(238, 82%, 13%)"></rect><g fill="url(#ffflurry-grad)"><rect width="54" height="3" x="481" y="625.5" rx="1.5" transform="rotate(45, 508, 627)" opacity="0.36"></rect><rect width="187" height="3" x="87.5" y="269.5" rx="1.5" transform="rotate(45, 181, 271)" opacity="0.23"></rect><rect width="246" height="3" x="68" y="186.5" rx="1.5" transform="rotate(45, 191, 188)" opacity="0.35"></rect><rect width="389" height="3" x="-48.5" y="125.5" rx="1.5" transform="rotate(45, 146, 127)" opacity="0.84"></rect><rect width="388" height="3" x="471" y="428.5" rx="1.5" transform="rotate(45, 665, 430)" opacity="0.77"></rect><rect width="511" height="3" x="-22.5" y="114.5" rx="1.5" transform="rotate(45, 233, 116)" opacity="0.23"></rect><rect width="440" height="3" x="84" y="422.5" rx="1.5" transform="rotate(45, 304, 424)" opacity="0.42"></rect><rect width="140" height="3" x="263" y="199.5" rx="1.5" transform="rotate(45, 333, 201)" opacity="0.32"></rect><rect width="732" height="3" x="118" y="408.5" rx="1.5" transform="rotate(45, 484, 410)" opacity="0.73"></rect><rect width="54" height="3" x="649" y="78.5" rx="1.5" transform="rotate(45, 676, 80)" opacity="0.89"></rect><rect width="320" height="3" x="614" y="151.5" rx="1.5" transform="rotate(45, 774, 153)" opacity="0.07"></rect><rect width="342" height="3" x="119" y="752.5" rx="1.5" transform="rotate(45, 290, 754)" opacity="0.18"></rect><rect width="204" height="3" x="-25" y="408.5" rx="1.5" transform="rotate(45, 77, 410)" opacity="0.24"></rect><rect width="147" height="3" x="464.5" y="193.5" rx="1.5" transform="rotate(45, 538, 195)" opacity="0.98"></rect><rect width="196" height="3" x="583" y="349.5" rx="1.5" transform="rotate(45, 681, 351)" opacity="0.73"></rect><rect width="176" height="3" x="222" y="100.5" rx="1.5" transform="rotate(45, 310, 102)" opacity="0.50"></rect><rect width="516" height="3" x="128" y="411.5" rx="1.5" transform="rotate(45, 386, 413)" opacity="0.22"></rect><rect width="485" height="3" x="19.5" y="334.5" rx="1.5" transform="rotate(45, 262, 336)" opacity="0.36"></rect><rect width="754" height="3" x="-214" y="560.5" rx="1.5" transform="rotate(45, 163, 562)" opacity="0.22"></rect><rect width="69" height="3" x="46.5" y="715.5" rx="1.5" transform="rotate(45, 81, 717)" opacity="0.30"></rect><rect width="282" height="3" x="-94" y="771.5" rx="1.5" transform="rotate(45, 47, 773)" opacity="0.49"></rect><rect width="85" height="3" x="82.5" y="327.5" rx="1.5" transform="rotate(45, 125, 329)" opacity="0.85"></rect><rect width="348" height="3" x="439" y="33.5" rx="1.5" transform="rotate(45, 613, 35)" opacity="0.61"></rect><rect width="158" height="3" x="672" y="414.5" rx="1.5" transform="rotate(45, 751, 416)" opacity="0.23"></rect><rect width="625" height="3" x="143.5" y="49.5" rx="1.5" transform="rotate(45, 456, 51)" opacity="0.97"></rect><rect width="117" height="3" x="5.5" y="625.5" rx="1.5" transform="rotate(45, 64, 627)" opacity="0.45"></rect><rect width="371" height="3" x="74.5" y="31.5" rx="1.5" transform="rotate(45, 260, 33)" opacity="0.96"></rect><rect width="449" height="3" x="-14.5" y="407.5" rx="1.5" transform="rotate(45, 210, 409)" opacity="0.46"></rect><rect width="498" height="3" x="-173" y="184.5" rx="1.5" transform="rotate(45, 76, 186)" opacity="0.57"></rect><rect width="236" height="3" x="491" y="741.5" rx="1.5" transform="rotate(45, 609, 743)" opacity="0.71"></rect><rect width="208" height="3" x="493" y="220.5" rx="1.5" transform="rotate(45, 597, 222)" opacity="0.32"></rect><rect width="184" height="3" x="163" y="513.5" rx="1.5" transform="rotate(45, 255, 515)" opacity="0.41"></rect><rect width="200" height="3" x="577" y="526.5" rx="1.5" transform="rotate(45, 677, 528)" opacity="0.50"></rect><rect width="256" height="3" x="103" y="664.5" rx="1.5" transform="rotate(45, 231, 666)" opacity="0.29"></rect><rect width="245" height="3" x="328.5" y="236.5" rx="1.5" transform="rotate(45, 451, 238)" opacity="0.26"></rect><rect width="255" height="3" x="616.5" y="39.5" rx="1.5" transform="rotate(45, 744, 41)" opacity="0.60"></rect><rect width="127" height="3" x="448.5" y="737.5" rx="1.5" transform="rotate(45, 512, 739)" opacity="0.59"></rect><rect width="42" height="3" x="742" y="494.5" rx="1.5" transform="rotate(45, 763, 496)" opacity="0.77"></rect><rect width="589" height="3" x="-131.5" y="756.5" rx="1.5" transform="rotate(45, 163, 758)" opacity="0.17"></rect><rect width="25" height="3" x="601.5" y="165.5" rx="1.5" transform="rotate(45, 614, 167)" opacity="0.70"></rect><rect width="372" height="3" x="-143" y="93.5" rx="1.5" transform="rotate(45, 43, 95)" opacity="0.72"></rect><rect width="48" height="3" x="130" y="660.5" rx="1.5" transform="rotate(45, 154, 662)" opacity="0.30"></rect><rect width="393" height="3" x="444.5" y="632.5" rx="1.5" transform="rotate(45, 641, 634)" opacity="0.78"></rect><rect width="416" height="3" x="-167" y="541.5" rx="1.5" transform="rotate(45, 41, 543)" opacity="0.76"></rect><rect width="428" height="3" x="-61" y="447.5" rx="1.5" transform="rotate(45, 153, 449)" opacity="0.42"></rect><rect width="156" height="3" x="636" y="262.5" rx="1.5" transform="rotate(45, 714, 264)" opacity="0.89"></rect><rect width="160" height="3" x="-59" y="693.5" rx="1.5" transform="rotate(45, 21, 695)" opacity="0.73"></rect><rect width="391" height="3" x="-150.5" y="256.5" rx="1.5" transform="rotate(45, 45, 258)" opacity="0.66"></rect><rect width="179" height="3" x="174.5" y="230.5" rx="1.5" transform="rotate(45, 264, 232)" opacity="0.20"></rect><rect width="466" height="3" x="-163" y="477.5" rx="1.5" transform="rotate(45, 70, 479)" opacity="0.59"></rect><rect width="515" height="3" x="145.5" y="132.5" rx="1.5" transform="rotate(45, 403, 134)" opacity="0.79"></rect><rect width="479" height="3" x="266.5" y="138.5" rx="1.5" transform="rotate(45, 506, 140)" opacity="0.61"></rect><rect width="417" height="3" x="328.5" y="545.5" rx="1.5" transform="rotate(45, 537, 547)" opacity="0.69"></rect><rect width="120" height="3" x="348" y="759.5" rx="1.5" transform="rotate(45, 408, 761)" opacity="0.71"></rect><rect width="132" height="3" x="317" y="614.5" rx="1.5" transform="rotate(45, 383, 616)" opacity="0.25"></rect><rect width="114" height="3" x="633" y="187.5" rx="1.5" transform="rotate(45, 690, 189)" opacity="0.85"></rect><rect width="102" height="3" x="486" y="53.5" rx="1.5" transform="rotate(45, 537, 55)" opacity="0.78"></rect><rect width="274" height="3" x="630" y="349.5" rx="1.5" transform="rotate(45, 767, 351)" opacity="0.88"></rect><rect width="153" height="3" x="-44.5" y="357.5" rx="1.5" transform="rotate(45, 32, 359)" opacity="0.65"></rect><rect width="44" height="3" x="627" y="224.5" rx="1.5" transform="rotate(45, 649, 226)" opacity="0.90"></rect><rect width="368" height="3" x="535" y="720.5" rx="1.5" transform="rotate(45, 719, 722)" opacity="0.91"></rect><rect width="247" height="3" x="259.5" y="304.5" rx="1.5" transform="rotate(45, 383, 306)" opacity="0.42"></rect><rect width="456" height="3" x="411" y="286.5" rx="1.5" transform="rotate(45, 639, 288)" opacity="0.10"></rect><rect width="68" height="3" x="358" y="521.5" rx="1.5" transform="rotate(45, 392, 523)" opacity="0.82"></rect><rect width="42" height="3" x="59" y="30.5" rx="1.5" transform="rotate(45, 80, 32)" opacity="0.79"></rect><rect width="303" height="3" x="433.5" y="471.5" rx="1.5" transform="rotate(45, 585, 473)" opacity="0.49"></rect><rect width="412" height="3" x="-32" y="41.5" rx="1.5" transform="rotate(45, 174, 43)" opacity="0.27"></rect><rect width="260" height="3" x="622" y="605.5" rx="1.5" transform="rotate(45, 752, 607)" opacity="0.53"></rect><rect width="66" height="3" x="736" y="759.5" rx="1.5" transform="rotate(45, 769, 761)" opacity="0.29"></rect><rect width="33" height="3" x="598.5" y="115.5" rx="1.5" transform="rotate(45, 615, 117)" opacity="0.12"></rect><rect width="54" height="3" x="337" y="35.5" rx="1.5" transform="rotate(45, 364, 37)" opacity="0.20"></rect><rect width="380" height="3" x="112" y="633.5" rx="1.5" transform="rotate(45, 302, 635)" opacity="0.29"></rect><rect width="555" height="3" x="144.5" y="681.5" rx="1.5" transform="rotate(45, 422, 683)" opacity="0.20"></rect><rect width="462" height="3" x="311" y="269.5" rx="1.5" transform="rotate(45, 542, 271)" opacity="0.12"></rect><rect width="164" height="3" x="487" y="352.5" rx="1.5" transform="rotate(45, 569, 354)" opacity="0.84"></rect><rect width="341" height="3" x="550.5" y="139.5" rx="1.5" transform="rotate(45, 721, 141)" opacity="0.70"></rect><rect width="162" height="3" x="690" y="266.5" rx="1.5" transform="rotate(45, 771, 268)" opacity="0.21"></rect></g></svg>